# xmcd
#
# Track frame offsets:
#	150
#	14191
#	30167
#	47079
#	63875
#	80601
#	96188
#	111584
#	130263
#	149813
#
# Disc length: 2238 seconds
#
# Revision: 1
# Processed by: cddbd v1.5.2PL0 Copyright (c) Steve Scherf et al.
# Submitted via: audiograbber 1.83.01
#
DISCID=8f08bc0a
DTITLE=Lee Gibson - Somewhere Other Than Here
DYEAR=2001
DGENRE=Country
TTITLE0=Tennessee Rain
TTITLE1=No Man's Land
TTITLE2=What Else Could You Do
TTITLE3=Still There
TTITLE4=It Felt Right
TTITLE5=Too Bad She's Gone Again
TTITLE6=Does She Know
TTITLE7=Days Like These
TTITLE8=Somewhere Other Than Here
TTITLE9=Fever
EXTD=
EXTT0=
EXTT1=
EXTT2=
EXTT3=
EXTT4=
EXTT5=
EXTT6=
EXTT7=
EXTT8=
EXTT9=
PLAYORDER=
